<?xml version="1.0" encoding="utf-8"?>
<!-- Generator: Adobe Illustrator 26.0.0, SVG Export Plug-In . SVG Version: 6.00 Build 0)  -->
<svg version="1.1" id="Layer_1" xmlns="http://www.w3.org/2000/svg" xmlns:xlink="http://www.w3.org/1999/xlink" x="0px" y="0px"
	 viewBox="0 0 414.16 414.16" style="enable-background:new 0 0 414.16 414.16;" xml:space="preserve">
<style type="text/css">
	.st0{fill:#1F3763;}
	.st1{fill:#262626;}
	.st2{opacity:0.15;fill:#262626;}
	.st3{opacity:0.1;fill:#262626;}
	.st4{opacity:0.3;fill:#262626;}
	.st5{fill:#00B0F0;}
	.st6{fill:#00B050;}
</style>
<g id="Film_01">
</g>
<g id="New_Symbol_8">
</g>
<g>
	<g>
		<g>
			<g>
				<g>
					<polygon class="st0" points="199.39,127.85 199.39,141.05 193.82,146.55 193.82,125.6 					"/>
					<polygon class="st0" points="191.18,124.53 191.18,149.15 184.77,155.46 184.77,143.18 183.31,142.58 178.6,140.67 
						177.84,140.37 177.59,140.27 175.37,139.37 170.91,137.56 170.04,137.21 170.04,127.85 184.71,121.92 					"/>
					<polygon class="st0" points="182.43,144.76 182.43,157.77 177.84,162.29 177.84,142.9 					"/>
					<polygon class="st0" points="175.37,141.9 175.37,164.72 157.66,182.16 157.63,174.11 157.63,144.76 170.03,139.74 
						170.04,139.74 					"/>
				</g>
			</g>
		</g>
		<g>
			<g>
				<path class="st1" d="M233.55,209.48c0.01-0.01,0.02-0.01,0.03-0.02c0.2-0.1,0.41-0.09,0.59-0.02c0,0,0,0,0.01,0
					c0.3,0.11,0.56,0.4,0.7,0.7c0.04,0.1,0.07,0.2,0.09,0.3c0.01,0.07,0.01,0.13,0,0.19c0.01-0.01,0.02-0.01,0.03-0.02
					c0.1-0.06,0.2-0.11,0.29-0.17c0.07-0.04,0.14-0.09,0.21-0.13l0.03-0.02l0.33-0.23l0.03-0.02c1.26-0.96,1.76-2.03,2.39-3.03v0
					c0.06-0.09,0.11-0.18,0.17-0.26c0.04-0.11,0.09-0.21,0.12-0.31c0.65-1.67,0.53-2.11,1.05-4.6c0.25-1.01-0.22-1.97-1.19-2.34
					c0,0-0.95,0.21-1.27,1.39c-0.64,2.4-0.68,3.13-0.78,4.53L233.55,209.48z"/>
				<path class="st2" d="M235.5,210.31l0.03-0.02l0.33-0.23l0.03-0.02c1.26-0.96,1.76-2.03,2.39-3.03c0.03,0.41,0.07,0.83,0.1,1.24
					l0.35-0.25l-0.16-1.56l-0.48-4.67l-0.62,5.04L235.5,210.31z"/>
				<path class="st1" d="M237.89,214.96L237.89,214.96l0.6,0.03l1.38,0.08l0.73,0.04l0.76,0.05l0.32,0.02l0.39,0.02l1.01,0.06h0
					l0.78,0.05l0.77,0.04l0.88,0.05c0.03-0.07,0.06-0.14,0.09-0.22v0c0.34-0.94,0.21-2.98-0.1-4.36l-0.44-0.03l-3.67-0.22l-0.6-0.03
					l-0.14-0.01l-0.43-0.03l-0.25-0.01l-0.15-0.01l-0.4-0.02l-0.14-0.01l-0.27-0.02l-0.36-0.02l0,0.02l-0.05,0.39l-0.06,0.39
					l-0.09,0.65l-0.28,1.98l-0.2,0.79c-0.01,0.04-0.02,0.08-0.03,0.12c-0.01,0.03-0.02,0.07-0.03,0.1L237.89,214.96z"/>
				<path class="st1" d="M241.65,215c0.01,0.06,0.02,0.12,0.03,0.19c0,0.02,0.01,0.04,0.01,0.07c0.05,0.37,0.1,0.74,0.15,1.1
					c0.31,2.33,0.55,4.33,1.15,6.05l0.39-0.03l1.48-0.11l1.19-0.09c0.34-2.85,0.01-5.23-0.44-6.99v0c-0.28-0.3-0.58-0.51-0.91-0.64
					c-0.75-0.3-1.62-0.18-2.56,0.22v0c-0.07,0.03-0.13,0.06-0.2,0.09C241.84,214.9,241.75,214.95,241.65,215z"/>
				<path class="st1" d="M242.98,222.4c0.37,2.58,0.45,5.41,0.9,7.93c0.06,0.32,0.1,0.84,0.17,1.16c0.96,0.18,1.95-0.21,2.93,0.23
					c0.54-2.94,0.34-7.41-0.94-9.54c-0.27-0.45-0.55-0.65-0.85-0.69c-0.49-0.06-1.05,0.3-1.82,0.71
					C243.24,222.26,243.12,222.33,242.98,222.4z"/>
				<path class="st1" d="M242.98,233.29h4.11c0.06-0.91,0.01-1.3-0.21-1.91c-0.69-0.4-1.87-0.35-2.97,0.17l-0.46,0.19
					c-0.3,0.22-0.48,0.56-0.48,0.93V233.29z"/>
				<path class="st1" d="M238.27,207.01L238.27,207.01c0.03,0.41,0.07,0.83,0.1,1.25c0.04,0.46,0.08,0.93,0.12,1.39
					c0.02,0.27,0.04,0.53,0.07,0.8c0.01,0.13,0.02,0.26,0.03,0.39h6.9l0.2-2.57l0.39-5.1l0.26-3.39l-0.08-0.02l-2.55-0.72l-2.82,0
					l-2.49,0.47c-0.19,0.61-0.3,1.38-0.34,2.28C238.02,203.27,238.12,205.09,238.27,207.01z"/>
				<path class="st2" d="M238.71,209.51L238.71,209.51l0.7,0.93l0.02,0.03l0.27,0.36l0.3-0.08l0.01,0l0.17-0.04l0.16-0.04l0.07-0.02
					l0.37-0.1l0.6-0.16l3.75-0.97l-0.08,1.38l0,0.03l-0.01,0.14c0.08,0.86-0.06,2.47-0.35,3.58c-0.06,0.23-0.12,0.43-0.19,0.6
					c0.04,0.07,0.08,0.14,0.12,0.21c0.98,1.76,1.13,4.39,0.56,6.13c-0.09,0.28-0.21,0.54-0.34,0.77c-0.15,0.26-0.32,0.48-0.52,0.65
					c2.5,0.06,2.42,5.14,2.65,8.8c0.54-2.94,0.34-7.41-0.94-9.54c0.34-2.85,0.01-5.23-0.44-6.99v0c0.34-0.94,0.21-2.98-0.1-4.36
					l0.2-2.57c0.73-1.02,1.21-2.37,1.63-4.05l-1.23-1.05l-1.42-1.21l-1.69,3.77l-1.41,1.25L238.71,209.51z"/>
				<path class="st1" d="M236.87,211.52c0.17-0.01,0.31-0.14,0.42-0.27s0.2-0.29,0.35-0.38c0.09-0.05,0.2-0.08,0.26-0.16
					c0.07-0.08,0.08-0.19,0.05-0.29c-0.03-0.1-0.09-0.19-0.15-0.27c-0.23,0.14-0.52,0.19-0.7,0.39c-0.17,0.19-0.2,0.47-0.33,0.69
					c-0.04,0.06-0.09,0.14-0.07,0.21C236.74,211.5,236.81,211.52,236.87,211.52z"/>
				<path class="st1" d="M234.25,211.66c-0.08-0.15-0.04-0.34,0.02-0.5c0.06-0.16,0.15-0.32,0.15-0.49c0-0.1-0.03-0.21,0-0.31
					c0.03-0.1,0.13-0.17,0.23-0.2c0.1-0.03,0.21-0.02,0.31,0c0,0.27,0.1,0.54,0.02,0.8c-0.08,0.24-0.31,0.41-0.42,0.64
					c-0.03,0.07-0.07,0.15-0.15,0.16C234.34,211.77,234.28,211.71,234.25,211.66z"/>
				<path class="st1" d="M227.64,227.02c0.14,0,0.28-0.08,0.35-0.21l8.19-15.8c0.1-0.19,0.02-0.42-0.17-0.52
					c-0.19-0.1-0.42-0.02-0.52,0.17l-8.19,15.8c-0.1,0.19-0.02,0.42,0.17,0.52C227.52,227.01,227.58,227.02,227.64,227.02z"/>
				<path class="st1" d="M233.16,233.29h5.43c0.14-0.58,0.15-1.16,0-1.74c-0.72-0.7-1.65-0.99-2.8-0.9
					c-0.34,0.55-1.27,1.04-1.92,1.33c-0.43,0.19-0.7,0.61-0.7,1.08V233.29z"/>
				<path class="st1" d="M236.7,221.24l0.48,0.15l1.77,0.55l0.67,0.21c0.04-0.08,0.08-0.16,0.13-0.24v0
					c0.95-1.83,1.68-3.9,2.08-5.55c0.09-0.37,0.16-0.73,0.22-1.05c0.01-0.03,0.01-0.06,0.02-0.09c0.02-0.12,0.04-0.23,0.05-0.34
					c0-0.03,0.01-0.07,0.01-0.1v0c-0.38-0.99-1.35-1.13-2.49-1.06c-0.04,0-0.08,0-0.11,0.01c-0.22,0.02-0.44,0.04-0.66,0.06
					c-0.23,0.02-0.46,0.05-0.7,0.07c0,0-0.01,0-0.01,0c-0.06,0.27-0.13,0.53-0.19,0.79c-0.01,0.04-0.02,0.08-0.03,0.12
					c-0.01,0.03-0.02,0.07-0.03,0.1c-0.01,0.03-0.02,0.06-0.02,0.1c-0.57,2.31-1.09,4.29-1.18,6.12
					C236.71,221.13,236.7,221.18,236.7,221.24z"/>
				<path class="st1" d="M235.79,230.65c0.89,0.38,1.92,0.26,2.77,0.88c0.01,0.01,0.02,0.01,0.03,0.02
					c0.03-0.07,0.06-0.15,0.09-0.23c0.11-0.28,0.21-0.58,0.31-0.9c0.01-0.03,0.02-0.06,0.03-0.09c0.27-0.88,0.51-1.89,0.7-2.89
					c0-0.01,0-0.02,0.01-0.03c0.43-2.33,0.54-4.67,0.03-5.49v0c-0.15-0.26-0.3-0.47-0.45-0.63c-0.01-0.01-0.01-0.01-0.02-0.02
					c-0.49-0.51-1.03-0.53-1.95-0.33c-0.19,0.04-0.4,0.1-0.63,0.16c0,0-0.01,0-0.01,0C236.49,224.02,235.76,227.83,235.79,230.65z"
					/>
				<path class="st1" d="M240.88,197.32l0.03,1.7c0.04,1.12,2.71,1.23,2.82,0l0.02-1.78L240.88,197.32z"/>
				<g>
					<path class="st1" d="M239.76,195.64c0.07,0.3,0.22,0.71,0.39,0.78c0.2,0.07,0.26-0.05,0.28-0.06c0.09,0.44,0.13,0.83,0.28,1.07
						c0.19,0.28,0.33,0.48,0.46,0.64c0.3,0.36,0.55,0.44,1.13,0.45c0,0,0,0,0,0c0,0,0,0,0,0c0.58,0,0.83-0.08,1.13-0.43
						c0.14-0.16,0.28-0.36,0.47-0.63c0.16-0.23,0.2-0.62,0.3-1.06c0.01,0,0.07,0.13,0.28,0.06c0.17-0.06,0.32-0.47,0.4-0.77
						c0.07-0.26,0-0.47-0.13-0.56c-0.04-0.03-0.09-0.05-0.14-0.05h0c-0.05,0-0.1,0.01-0.16,0.04c0.04-0.18,0.06-0.35,0.07-0.52
						c0.03-0.33,0-0.63-0.08-0.89c-0.09-0.33-0.24-0.6-0.45-0.83c0,0,0,0,0,0c-0.36-0.39-0.88-0.62-1.46-0.66h-0.01
						c-0.06,0-0.12-0.01-0.18-0.01c-1.02,0-1.87,0.52-2.13,1.5c-0.07,0.26-0.1,0.55-0.08,0.86c0.01,0.18,0.03,0.35,0.07,0.52
						c-0.06-0.03-0.11-0.05-0.16-0.05c-0.06,0-0.11,0.02-0.16,0.06C239.76,195.19,239.7,195.39,239.76,195.64z"/>
					<path class="st1" d="M240.03,195.04c0.13,0.07,0.22,0.17,0.29,0.41c0.03,0.11,0.06,0.25,0.08,0.43
						c0.14,0.04,0.2,0.05,0.33,0.09c-0.03-0.13-0.06-0.25-0.08-0.36c-0.14-0.64-0.18-1.13-0.16-1.52c0.01-0.15,0.02-0.28,0.04-0.39
						c0.17-0.9,0.77-0.94,0.98-0.98c0.27-0.05,1.38-0.05,1.65,0.01c0.2,0.04,0.7,0.08,0.91,0.75c0.02,0.07,0.04,0.14,0.05,0.22
						c0.08,0.42,0.06,1.02-0.13,1.9c-0.03,0.13-0.06,0.26-0.1,0.4c0.13-0.04,0.19-0.05,0.33-0.09c0.03-0.21,0.06-0.36,0.1-0.48
						c0.07-0.2,0.16-0.29,0.28-0.36h0c0.08-0.59,0.08-1.02,0.02-1.37c-0.07-0.4-0.22-0.7-0.44-1.03c-0.59-0.87-2.81-1.05-3.69-0.03
						c-0.27,0.31-0.43,0.63-0.49,1.06C239.95,194.05,239.96,194.48,240.03,195.04z"/>
					<path class="st1" d="M243.1,192.21c0.16,0,0.31,0.06,0.45,0.14c0.2,0.11,0.7,0.84,0.6,1.01c-0.43,0.7-1.75,0.9-2.69,0.93
						c0.1-0.08,0.28-0.24,0.31-0.39c-0.51,0.22-1.09,0.27-1.62,0.13c0.17-0.46,0.35-0.93,0.7-1.27c0.29-0.27,0.67-0.42,1.06-0.49
						C242.31,192.2,242.71,192.2,243.1,192.21z"/>
				</g>
				<g>
					<path class="st1" d="M226.26,225.26h1.75c0.55,0,1,0.45,1,1v2.04h-3.74v-2.04C225.26,225.71,225.71,225.26,226.26,225.26z"/>
					<rect x="225.26" y="226.78" class="st1" width="3.74" height="3.04"/>
					<path class="st1" d="M222.2,230.8h9.85l-1.61-1.45c-0.18-0.16-0.41-0.25-0.66-0.25h-5.31c-0.24,0-0.48,0.09-0.66,0.25
						L222.2,230.8z"/>
					<path class="st1" d="M221.91,231.51h10.44v-0.4c0-0.35-0.28-0.63-0.63-0.63h-9.17c-0.35,0-0.63,0.28-0.63,0.63V231.51z"/>
					<g>
						<path class="st1" d="M228.47,228.45c0,0.04,0.04,0.08,0.08,0.08l0,0c0.04,0,0.08-0.04,0.08-0.08v-1.25
							c0-0.04-0.04-0.08-0.08-0.08l0,0c-0.04,0-0.08,0.04-0.08,0.08V228.45z"/>
						<path class="st1" d="M228.12,228.45c0,0.04,0.04,0.08,0.08,0.08l0,0c0.04,0,0.08-0.04,0.08-0.08v-1.25
							c0-0.04-0.04-0.08-0.08-0.08l0,0c-0.04,0-0.08,0.04-0.08,0.08V228.45z"/>
						<path class="st1" d="M227.76,228.45c0,0.04,0.04,0.08,0.08,0.08l0,0c0.04,0,0.08-0.04,0.08-0.08v-1.25
							c0-0.04-0.04-0.08-0.08-0.08l0,0c-0.04,0-0.08,0.04-0.08,0.08V228.45z"/>
						<path class="st1" d="M227.41,228.45c0,0.04,0.04,0.08,0.08,0.08l0,0c0.04,0,0.08-0.04,0.08-0.08v-1.25
							c0-0.04-0.04-0.08-0.08-0.08l0,0c-0.04,0-0.08,0.04-0.08,0.08V228.45z"/>
						<path class="st1" d="M227.05,228.45c0,0.04,0.04,0.08,0.08,0.08l0,0c0.04,0,0.08-0.04,0.08-0.08v-1.25
							c0-0.04-0.04-0.08-0.08-0.08l0,0c-0.04,0-0.08,0.04-0.08,0.08V228.45z"/>
						<path class="st1" d="M226.69,228.45c0,0.04,0.04,0.08,0.08,0.08l0,0c0.04,0,0.08-0.04,0.08-0.08v-1.25
							c0-0.04-0.04-0.08-0.08-0.08l0,0c-0.04,0-0.08,0.04-0.08,0.08V228.45z"/>
						<path class="st1" d="M226.34,228.45c0,0.04,0.04,0.08,0.08,0.08l0,0c0.04,0,0.08-0.04,0.08-0.08v-1.25
							c0-0.04-0.04-0.08-0.08-0.08l0,0c-0.04,0-0.08,0.04-0.08,0.08V228.45z"/>
						<path class="st1" d="M225.98,228.45c0,0.04,0.04,0.08,0.08,0.08l0,0c0.04,0,0.08-0.04,0.08-0.08v-1.25
							c0-0.04-0.04-0.08-0.08-0.08l0,0c-0.04,0-0.08,0.04-0.08,0.08V228.45z"/>
						<path class="st1" d="M225.63,228.45c0,0.04,0.04,0.08,0.08,0.08l0,0c0.04,0,0.08-0.04,0.08-0.08v-1.25
							c0-0.04-0.04-0.08-0.08-0.08l0,0c-0.04,0-0.08,0.04-0.08,0.08V228.45z"/>
					</g>
					<rect x="224.7" y="228.75" class="st1" width="4.87" height="0.35"/>
					<rect x="222.29" y="231.51" class="st1" width="9.69" height="0.26"/>
					<polygon class="st1" points="221.95,233.29 232.32,233.29 231.98,231.76 222.29,231.76 					"/>
					<polygon class="st3" points="231.83,232.01 231.74,233.29 232.25,233.29 					"/>
					<polygon class="st3" points="230.88,232.01 230.76,233.29 231.74,233.29 231.51,232.59 231.27,233.15 					"/>
					<polygon class="st3" points="229.94,231.89 229.68,233.29 230.09,233.29 					"/>
					<polygon class="st3" points="229.49,232.27 229.29,233.29 229.62,233.29 					"/>
					<polygon class="st3" points="227.57,232.25 227.37,233.29 228.4,233.29 228.12,231.89 227.84,233.15 					"/>
					<polygon class="st3" points="227.13,232.73 226.92,233.29 227.29,233.29 					"/>
					<polygon class="st3" points="226.5,231.83 226.11,233.29 226.82,233.29 					"/>
					<polygon class="st3" points="225.26,231.88 225,233.29 225.42,233.29 					"/>
					<polygon class="st3" points="224.85,231.91 224.52,233.29 224.97,233.29 					"/>
					<polygon class="st3" points="224.21,231.99 223.85,233.29 224.47,233.29 224.1,233.21 					"/>
					<polygon class="st3" points="223.06,232.47 222.81,233.29 223.47,233.29 223.53,231.93 223.06,233.28 					"/>
					<polygon class="st3" points="222.02,233.29 222.41,233.29 222.43,231.99 					"/>
				</g>
				<path class="st1" d="M231.96,211.22h7.67c0.21,0,0.39-0.17,0.39-0.39c0-0.21-0.17-0.39-0.39-0.39h-7.67
					c-0.21,0-0.39,0.17-0.39,0.39C231.57,211.05,231.75,211.22,231.96,211.22z"/>
				<path class="st1" d="M234.24,211.47c0.04-0.03,0.19-0.14,0.22-0.19c0.08-0.14-0.12-0.27,0-0.37c0.04-0.04,0.1-0.05,0.16-0.06
					c0.14-0.03,0.29-0.09,0.35-0.22c0.02-0.05,0.03-0.11,0.03-0.16c0.01-0.25-0.1-0.5-0.27-0.68c-0.17-0.18-0.4-0.3-0.64-0.36
					c-0.07-0.02-0.15-0.03-0.22-0.03c-0.2,0.01-0.38,0.11-0.55,0.21c-0.36,0.21-0.71,0.41-1.07,0.62c-0.08,0.05-0.16,0.1-0.2,0.18
					c-0.02,0.05-0.02,0.11-0.02,0.17c0,0.25-0.01,0.5-0.01,0.75c0,0.07,0,0.13,0.03,0.19c0.05,0.09,0.17,0.14,0.26,0.1
					c0.03-0.01,0.06-0.03,0.1-0.03c0.03,0,0.05,0.03,0.08,0.05c0.09,0.07,0.23,0.07,0.32,0c0.02-0.02,0.04-0.04,0.07-0.04
					c0.04,0,0.06,0.04,0.09,0.07c0.11,0.12,0.33,0.11,0.42-0.03c0.12,0.1,0.22,0.16,0.37,0.11
					C233.91,211.7,234.11,211.56,234.24,211.47z"/>
				<path class="st1" d="M234.05,211.22h1.57c0.21,0,0.39-0.17,0.39-0.39c0-0.21-0.17-0.39-0.39-0.39h-1.57
					c-0.21,0-0.39,0.17-0.39,0.39C233.66,211.05,233.83,211.22,234.05,211.22z"/>
				<path class="st3" d="M240.03,195.04c0.13,0.07,0.22,0.17,0.29,0.41c0.06,0.03,0.11,0.06,0.17,0.09c0.05,0.03,0.1,0.05,0.16,0.07
					c1.09,0.51,2.21,0.52,3.35-0.02c0.05-0.02,0.1-0.04,0.14-0.07c0.06-0.03,0.13-0.07,0.19-0.1c0.07-0.2,0.16-0.29,0.28-0.36h0
					c0.08-0.59,0.08-1.02,0.02-1.37H240C239.95,194.05,239.96,194.48,240.03,195.04z"/>
				<g>
					<path class="st1" d="M241.98,191.59h0.68c1.14,0,2.06,0.92,2.06,2.06l-0.04,0.71c-1.59-0.3-3.1-0.33-4.72-0.03l-0.04-0.68
						C239.92,192.52,240.84,191.59,241.98,191.59z"/>
					<path class="st1" d="M244.52,194.3c-0.05,0.18-0.05,0.13-0.08,0.19c-0.15,0.36-0.54,0.58-0.89,0.51
						c-0.22-0.04-0.41-0.17-0.61-0.27c-0.2-0.09-0.41-0.14-0.62-0.15c-0.21,0.01-0.43,0.06-0.62,0.15c-0.2,0.09-0.39,0.22-0.61,0.27
						c-0.36,0.07-0.74-0.15-0.89-0.51c-0.03-0.06-0.02-0.01-0.08-0.19C240.82,193.45,243.8,193.45,244.52,194.3z"/>
				</g>
				<path class="st1" d="M242.99,198.98c0.31-0.14,0.57-0.4,0.76-0.65l0.17,0.75c-0.08,0.63-0.89,1.06-1.39,0.87l0.09-0.51
					C242.65,199.23,242.8,199.06,242.99,198.98z"/>
				<path class="st1" d="M241.58,198.94c-0.31-0.12-0.55-0.33-0.68-0.61l-0.17,0.75c0.08,0.63,0.8,1.01,1.3,0.82l-0.05-0.45
					C241.95,199.21,241.79,199.02,241.58,198.94z"/>
				<path class="st4" d="M241.1,211.52h0.52c0-2.09,0.5-9.33,0.89-11.58l-0.52-0.09C241.6,202.12,241.1,209.42,241.1,211.52z"/>
				<path class="st1" d="M239.46,211.59c0.04-0.03,0.19-0.15,0.22-0.2c0.08-0.14-0.12-0.28,0-0.39c0.04-0.04,0.1-0.05,0.16-0.07
					c0.14-0.03,0.29-0.1,0.35-0.23c0.02-0.05,0.03-0.11,0.03-0.17c0.01-0.26-0.1-0.53-0.27-0.72s-0.4-0.32-0.64-0.38
					c-0.07-0.02-0.15-0.03-0.22-0.03c-0.2,0.01-0.38,0.11-0.55,0.22c-0.36,0.22-0.71,0.44-1.07,0.65c-0.08,0.05-0.16,0.1-0.2,0.19
					c-0.02,0.05-0.02,0.12-0.02,0.18c0,0.27-0.01,0.53-0.01,0.8c0,0.07,0,0.14,0.03,0.2c0.05,0.1,0.17,0.15,0.26,0.11
					c0.03-0.01,0.06-0.04,0.1-0.03c0.03,0,0.05,0.03,0.08,0.05c0.09,0.07,0.23,0.07,0.32,0c0.02-0.02,0.04-0.04,0.07-0.04
					c0.04,0,0.06,0.04,0.09,0.07c0.11,0.13,0.33,0.11,0.42-0.03c0.12,0.11,0.22,0.17,0.37,0.12
					C239.12,211.83,239.33,211.68,239.46,211.59z"/>
				<path class="st1" d="M238.71,209.51h0.02c0.59-0.02,1.08,0.45,1.23,0.93c0.01,0.02,0.01,0.04,0.02,0.06
					c0.02,0.07,0.03,0.14,0.03,0.2c0,0,0,0,0,0c0,0.02,0,0.03,0,0.04c0,0.03,0,0.05,0,0.08l0.03-0.01l0.12-0.05l0.2-0.09l0.07-0.03
					l0.23-0.1l0.75-0.33l4.26-1.89c0.02-0.02,0.03-0.04,0.05-0.07c0.73-1.02,1.21-2.37,1.63-4.05c0.15-0.6,0.29-1.24,0.43-1.93
					c0.25-1.01-0.06-2.05-1.03-2.42l-0.38-0.1l-0.08-0.02l-0.6-0.16c-0.38,0.8-0.72,1.6-1,2.37c-0.57,1.54-0.94,2.96-1.01,4.03
					l-2.12,1.52L238.71,209.51z"/>
				<path class="st1" d="M239.39,211.22h0.6c0.21,0,0.39-0.17,0.39-0.39c0-0.21-0.17-0.39-0.39-0.39h-0.6
					c-0.21,0-0.39,0.17-0.39,0.39C239,211.05,239.18,211.22,239.39,211.22z"/>
				<polygon class="st1" points="239.01,203.22 240.73,203.31 240.8,202.61 239.08,202.53 				"/>
				<path class="st2" d="M238.56,231.53c0,0.04,0.01,0.05,0.03,0.02c0.11-0.16,0.24-0.56,0.41-1.13c0.01-0.03,0.02-0.06,0.03-0.09
					c0.21-0.74,0.45-1.75,0.7-2.89c0-0.01,0-0.02,0.01-0.03c0.43-2.33,0.54-4.67,0.03-5.49v0c0.95-1.83,1.68-3.9,2.08-5.55
					l1.24-1.08c-0.37,0.05-0.71,0.06-1.03,0.03c-0.13-0.01-0.25-0.03-0.37-0.05c-0.11-0.02-0.22-0.05-0.33-0.09
					c-0.68-0.22-1.23-0.69-1.72-1.45c-0.08-0.12-0.15-0.24-0.22-0.37c0.04,0.13,0.08,0.25,0.11,0.38c0.14,0.48,0.25,0.93,0.34,1.36
					h0c0.5,2.39,0.32,4.17-0.58,6.18c-0.1,0.22-0.21,0.45-0.33,0.68C239.81,224.48,238.52,230.98,238.56,231.53z"/>
			</g>
			<g>
				<path class="st1" d="M170.9,231.82c-0.01,0.34-0.1,0.75-0.35,1.09c-0.38,0.52-0.96,0.51-1.34-0.01
					c-0.45-0.62-0.45-1.72,0.01-2.34c0.38-0.51,0.96-0.51,1.34,0.01C170.77,230.87,170.9,231.32,170.9,231.82z"/>
				<path class="st1" d="M195.38,232.44c0.11-0.03,0.2-0.07,0.29-0.08c1.81-0.08,3.61-0.17,5.42-0.25c0.08,0,0.16-0.02,0.25-0.02
					c0.32,0,0.65,0.37,0.59,0.69c-0.01,0.07-0.08,0.14-0.15,0.17c-0.07,0.03-0.16,0.02-0.24,0.02c-1.78,0.07-3.56,0.14-5.35,0.21
					C195.62,233.22,195.39,233.01,195.38,232.44z"/>
				<path class="st1" d="M184.18,205.4c-0.38,0.12-0.79,0.25-1.23,0.39c-0.1-0.56-0.19-1.06-0.04-1.61
					c0.16-0.59,0.23-1.21,0.33-1.82c0.04-0.2,0.07-0.4,0.11-0.61c0.26,0.01,0.33,0.2,0.35,0.36c0.18,1.07,0.34,2.13,0.51,3.2
					C184.22,205.33,184.21,205.34,184.18,205.4z"/>
				<path class="st1" d="M181.71,198.06c0.08,0.08,0.17,0.16,0.24,0.25c0.17,0.21,0.32,0.45,0.51,0.64
					c0.13,0.14,0.17,0.27,0.13,0.44c-0.02,0.11-0.04,0.22-0.08,0.32c-0.1,0.31-0.16,0.6,0.07,0.89c0.06,0.08,0.06,0.24,0.04,0.35
					c-0.06,0.32-0.13,0.65-0.23,0.96c-0.14,0.43-0.31,0.85-0.48,1.27c-0.04,0.1-0.15,0.23-0.23,0.24c-0.09,0.01-0.23-0.1-0.27-0.2
					c-0.15-0.35-0.27-0.72-0.41-1.08c-0.24-0.64-0.48-1.28-0.73-1.94c0.14-0.21,0.39-0.32,0.61-0.44c0.28-0.14,0.44-0.34,0.48-0.66
					c0.05-0.35,0.15-0.69,0.22-1.03C181.63,198.07,181.67,198.07,181.71,198.06z"/>
				<path class="st1" d="M181.72,210.12c-1.31-0.13-2.59-0.22-3.84-0.72c0.01-0.11,0.01-0.23,0.03-0.35
					c0.25-1.71,0.54-3.42,0.75-5.13c0.1-0.8,0.05-1.62,0.06-2.43c0-0.16,0-0.33,0-0.49c0-0.22,0.1-0.39,0.28-0.47
					c0.47-0.22,0.95-0.42,1.47-0.64c0.37,1.05,0.74,2.08,1.1,3.1c0.03,0,0.05,0,0.08,0c0.28-0.81,0.56-1.62,0.86-2.49
					c0.32,0.41,0.61,0.76,0.87,1.12c0.06,0.09,0.07,0.24,0.05,0.35c-0.12,0.75-0.19,1.5-0.16,2.25c0.02,0.44-0.14,0.84-0.47,1.15
					c-0.19,0.18-0.31,0.4-0.41,0.65c-0.49,1.19-0.68,2.43-0.65,3.7C181.74,209.83,181.73,209.95,181.72,210.12z"/>
				<path class="st1" d="M164.02,229.44c0.04-0.74,0.04-1.49,0.15-2.22c0.08-0.55,0.27-1.09,0.47-1.61c0.26-0.68,0.86-0.95,1.5-1.17
					c1.33-0.45,2.23,0.42,2.75,1.26c0.43,0.71,0.71,1.49,0.99,2.26c0.45,1.25,0.59,2.57,0.76,3.87c0.07,0.58-0.03,0.77-0.57,0.99
					c-0.3,0.12-0.63,0.2-0.95,0.22c-1.04,0.04-2.09,0.04-3.13,0.04c-0.34,0-0.69-0.04-1.03-0.08c-0.49-0.07-0.72-0.28-0.76-0.77
					c-0.09-0.93-0.15-1.86-0.22-2.79C163.99,229.45,164,229.44,164.02,229.44z"/>
				<path class="st1" d="M178.92,215.14c0,0.23,0,0.42,0,0.61c0.02,2.33,0.06,4.67,0.05,7c0,1.46,0.15,2.91,0.33,4.35
					c0.14,1.1,0.25,2.21,0.4,3.31c0.04,0.34,0.15,0.67,0.24,0.99c0.07,0.23,0.17,0.46,0.28,0.72c-0.46,0.07-0.87,0.03-1.32,0.02
					c0.03-0.33,0.07-0.61,0.07-0.9c0.01-0.23,0-0.47-0.05-0.69c-0.29-1.15-0.63-2.28-0.88-3.43c-0.17-0.79-0.24-1.6-0.31-2.4
					c-0.17-1.86-0.31-3.72-0.48-5.58c-0.13-1.46-0.29-2.92-0.43-4.39c-0.01-0.05,0.01-0.11,0.02-0.21
					C177.53,214.75,178.19,214.94,178.92,215.14z"/>
				<path class="st1" d="M180,215.28c0.69,0.03,1.32,0.07,1.98,0.1c0.05,0.17,0.1,0.32,0.14,0.48c1.18,4.42,2.27,8.86,3.33,13.31
					c0.02,0.09,0.05,0.19,0.07,0.28c0.14,0.84,0.39,1.62,1.01,2.25c0.03,0.03,0.04,0.07,0.05,0.11c0.15,0.73-1.02,0.17-1.27-0.05
					c-0.06-0.06-0.1-0.16-0.11-0.25c-0.02-0.65-0.26-1.23-0.48-1.83c-0.13-0.36-0.27-0.72-0.42-1.07c-0.77-1.8-1.31-3.67-1.85-5.54
					c-0.64-2.2-1.38-4.38-2.07-6.56C180.27,216.12,180.15,215.74,180,215.28z"/>
				<path class="st1" d="M181.11,196.67c0.14-0.41,0.27-0.78,0.4-1.16c0.04-0.11,0.12-0.22,0.19-0.32c0.44-0.62,0.99-1.05,1.79-0.95
					c0.77,0.1,1.2,0.62,1.47,1.29c0.26,0.66,0.31,1.34,0.06,2.01c-0.11,0.31-0.22,0.63-0.38,0.91c-0.15,0.25-0.35,0.5-0.57,0.69
					c-0.72,0.58-1.63,0.5-2.25-0.19c-0.14-0.15-0.25-0.33-0.34-0.51c-0.13-0.26-0.2-0.53-0.54-0.65c-0.23-0.08-0.3-0.38-0.34-0.63
					C180.5,196.69,180.68,196.53,181.11,196.67z"/>
				<path class="st1" d="M185.14,215.47c0.13-0.08,0.21-0.12,0.34-0.19c3.06,3.81,6.12,7.62,9.2,11.45
					c-0.11,0.12-0.2,0.22-0.33,0.36C191.28,223.21,188.22,219.36,185.14,215.47z"/>
				<path class="st1" d="M201.43,232.44c-1.96,0.07-3.89,0.14-5.82,0.21c-0.02-0.42,0-0.47,0.34-0.55c0.47-0.11,0.94-0.21,1.41-0.31
					c0.08-0.02,0.16-0.05,0.25-0.08c0.01-0.31-0.07-0.56-0.28-0.78c-0.27-0.29-0.52-0.6-0.83-0.95c0.2-0.06,0.34-0.11,0.53-0.16
					c0.18,0.21,0.36,0.41,0.53,0.62c0.29,0.33,0.58,0.66,0.85,1.01c0.15,0.18,0.32,0.27,0.56,0.28c0.62,0.04,1.23,0.1,1.85,0.15
					C201.14,231.9,201.36,232.04,201.43,232.44z"/>
				<path class="st1" d="M183.92,193.14c1.78,0.57,2.26,3.41,1.18,4.31c0.01-0.3,0.04-0.61,0.03-0.92c0-0.19-0.04-0.38-0.09-0.57
					c-0.38-1.34-2.13-1.5-2.82-0.71c-0.37,0.43-0.6,0.95-0.69,1.51c-0.02,0.13-0.05,0.25-0.08,0.41c-0.28-0.12-0.39-0.31-0.43-0.52
					c-0.1-0.58-0.22-1.17-0.22-1.75c0-0.56,0.34-1,0.81-1.32c0.14-0.09,0.28-0.16,0.45-0.26c-0.2-0.54-0.19-1.02,0.35-1.37
					c0.36-0.23,0.72-0.25,1.08-0.01C183.92,192.23,184.08,192.61,183.92,193.14z"/>
				<path class="st1" d="M165.42,229.72c0.04,0.84,0.08,1.67,0.12,2.51c0.01,0.19,0.02,0.38,0.02,0.58
					c-0.01,0.21-0.07,0.26-0.28,0.24c-0.01,0-0.03-0.01-0.04-0.01c-0.68-0.09-0.82-0.22-0.84-0.91c-0.04-1.56-0.06-3.13-0.11-4.69
					c-0.01-0.41,0.17-0.74,0.33-1.09c0.12-0.25,0.34-0.11,0.51-0.1c0.17,0.02,0.32,0.09,0.33,0.3c0,0.05-0.01,0.11-0.01,0.16
					c0,1,0,2,0,3C165.44,229.72,165.43,229.72,165.42,229.72z"/>
				<path class="st1" d="M167.13,229.83c0.73-0.06,1.37-0.11,2.01-0.16c0.26-0.02,0.52-0.06,0.78-0.08
					c0.29-0.02,0.35,0.01,0.39,0.29c0.05,0.31,0.08,0.63,0.09,0.94c0.01,0.29-0.06,0.36-0.36,0.39c-0.81,0.08-1.61,0.16-2.42,0.22
					c-0.29,0.02-0.35-0.02-0.38-0.3C167.21,230.71,167.18,230.29,167.13,229.83z"/>
				<path class="st1" d="M193.88,226.87c0.21-0.17,0.4-0.31,0.62-0.49c0.12,0.14,0.24,0.25,0.34,0.38c0.81,1,1.62,2.01,2.43,3.01
					c0.08,0.1,0.19,0.24,0.3,0.26c0.27,0.05,0.35,0.22,0.41,0.47c-0.18,0.05-0.35,0.08-0.52,0.14c-0.35,0.13-0.61,0.01-0.83-0.26
					c-0.89-1.12-1.77-2.24-2.66-3.36C193.94,226.99,193.92,226.95,193.88,226.87z"/>
				<path class="st1" d="M167.9,227.57c-0.15,0.01-0.3,0.02-0.45,0.02c-0.32,0.01-0.37-0.01-0.42-0.31
					c-0.06-0.34-0.11-0.68-0.12-1.02c-0.01-0.48,0.23-0.78,0.64-0.89c0.51-0.14,1-0.01,1.19,0.39c0.22,0.45,0.37,0.94,0.51,1.42
					c0.07,0.25,0,0.31-0.27,0.33c-0.35,0.04-0.71,0.05-1.07,0.08C167.9,227.58,167.9,227.57,167.9,227.57z"/>
				<path class="st1" d="M169.43,232.91c-0.4,0-0.79,0-1.19,0c-0.14,0-0.28,0-0.4-0.05c-0.08-0.03-0.13-0.15-0.19-0.22
					c0.07-0.05,0.13-0.13,0.21-0.16c0.09-0.03,0.19-0.01,0.28-0.02c0.6-0.04,1.2-0.08,1.8-0.14c0.29-0.03,0.42,0.01,0.44,0.16
					c0.02,0.17-0.18,0.36-0.41,0.37c-0.18,0.01-0.36,0-0.53,0C169.43,232.87,169.43,232.89,169.43,232.91z"/>
				<path class="st1" d="M186,216.48c0.33,0.2,0.56,0.5,0.78,0.82c0.05,0.07,0.09,0.19,0.08,0.27c-0.02,0.09-0.09,0.2-0.16,0.25
					c-0.06,0.04-0.19,0.01-0.25-0.04c-0.09-0.06-0.15-0.16-0.22-0.24c-0.12-0.16-0.24-0.33-0.36-0.5
					C185.63,216.75,185.64,216.69,186,216.48z"/>
				<path class="st1" d="M168.15,232c-0.01,0.15-0.13,0.21-0.28,0.21c-0.16,0-0.29-0.14-0.28-0.29c0.01-0.17,0.11-0.25,0.26-0.26
					C168.01,231.64,168.16,231.8,168.15,232z"/>
				<path class="st1" d="M170.38,231.67c-0.01,0.24-0.13,0.36-0.26,0.33c-0.15-0.03-0.25-0.13-0.23-0.29
					c0.01-0.16,0.1-0.28,0.26-0.25C170.25,231.5,170.33,231.63,170.38,231.67z"/>
				<path class="st1" d="M178.08,207.97c1.27,0.33,2.49,0.64,3.76,0.97c0.25,3.03,0.65,6.03,1.44,8.95
					c-0.39,0.14-5.77,0.22-6.45,0.1c-0.06-0.57-0.14-1.15-0.17-1.74c-0.07-1.34-0.12-2.69-0.15-4.03c-0.02-1.06,0.16-2.09,0.7-3.01
					C177.45,208.78,177.78,208.39,178.08,207.97z"/>
				<path class="st1" d="M179.05,200.59c-0.04,0.64-0.11,1.24-0.12,1.84c0,0.56-0.18,1.01-0.65,1.33c-0.11,0.08-0.2,0.18-0.33,0.29
					c-0.34-0.32-0.67-0.63-1.02-0.96c0.1-0.16,0.19-0.29,0.28-0.43c0.4-0.58,0.8-1.15,1.19-1.73
					C178.54,200.72,178.73,200.62,179.05,200.59z"/>
				<path class="st1" d="M165.93,232.14c-0.01,0.34-0.1,0.75-0.35,1.09c-0.38,0.52-0.96,0.51-1.34-0.01
					c-0.45-0.62-0.45-1.72,0.01-2.34c0.38-0.51,0.96-0.51,1.34,0.01C165.81,231.18,165.94,231.63,165.93,232.14z"/>
				<path class="st1" d="M165.43,231.96c-0.02,0.33-0.07,0.64-0.26,0.9c-0.26,0.35-0.62,0.35-0.89,0.01
					c-0.35-0.45-0.35-1.36-0.01-1.82c0.27-0.35,0.62-0.36,0.89-0.01C165.37,231.32,165.42,231.64,165.43,231.96z"/>
				<path class="st1" d="M165.52,226.35c-0.22-0.06-0.42-0.12-0.64-0.18c0.02-0.13,0.04-0.24,0.06-0.38
					c0.27,0.04,0.52,0.07,0.76,0.11c0.16,0.03,0.27,0.11,0.27,0.3c0,1.36,0,2.71,0,4.07c0,0.02-0.02,0.05-0.04,0.09
					c-0.13,0-0.28,0-0.47,0C165.46,229.01,165.5,227.69,165.52,226.35z"/>
				<path class="st1" d="M170.41,231.02c-0.75,0.07-1.48,0.14-2.25,0.21c-0.04-0.3-0.08-0.56-0.13-0.89
					c0.81-0.06,1.57-0.12,2.38-0.18C170.41,230.45,170.41,230.7,170.41,231.02z"/>
				<path class="st1" d="M165.75,225.03c0.45-0.61,1.8-0.79,2.34-0.33c-0.02,0.02-0.04,0.05-0.05,0.05
					c-0.57-0.08-1.04,0.16-1.51,0.42C166.18,225.37,166.11,225.36,165.75,225.03z"/>
				<path class="st1" d="M181.7,210.64c-0.2,0.11-0.34,0.19-0.48,0.27c-0.31-0.26-0.6-0.51-0.9-0.74c-0.64-0.49-1.38-0.57-2.15-0.47
					c-0.86,0.11-1.38,0.6-1.73,1.39c-0.59,1.32-0.77,2.72-0.96,4.12c-0.28,2.11-0.51,4.23-0.95,6.31c-0.29,1.36-0.75,2.67-1.56,3.82
					c-0.24,0.35-0.47,0.7-0.8,0.98c-0.59,0.5-1.27,0.69-2.01,0.73c-0.39,0.02-1.5-0.18-1.89-0.22c-0.2-0.02-0.36-0.13-0.39-0.36
					c-0.04-0.3,0.15-0.47,0.44-0.4c0.99,0.23,2.64,0.29,3.41-0.4c0.43-0.39,0.77-0.89,1.07-1.39c0.86-1.41,1.15-3.01,1.43-4.61
					c0.3-1.73,0.53-3.47,0.74-5.22c0.15-1.24,0.44-2.46,0.86-3.64c0.21-0.59,0.59-1.06,1.12-1.38c0.26-0.15,0.58-0.24,0.89-0.3
					c0.55-0.11,1.11-0.11,1.67,0.02c0.64,0.15,1.18,0.42,1.61,0.92C181.27,210.26,181.47,210.42,181.7,210.64z"/>
				<path class="st1" d="M186.04,215.48c-0.24,0.2-0.47,0.39-0.72,0.6c-0.3-0.35-0.57-0.67-0.84-0.99
					c-0.15-0.18-0.31-0.35-0.45-0.54c-0.12-0.17-0.27-0.27-0.49-0.25c-0.45,0.06-0.71-0.21-0.96-0.58c0.16-0.15,0.32-0.31,0.5-0.48
					c-0.23-0.26-0.45-0.53-0.69-0.77c-0.08-0.08-0.21-0.12-0.33-0.13c-0.34-0.05-0.68-0.08-1.02-0.11
					c-0.35-0.03-0.57-0.22-0.73-0.52c-0.17-0.34-0.12-0.55,0.35-0.67c0.06-0.02,0.13,0,0.26,0c-0.1-0.17-0.18-0.3-0.25-0.42
					c0.02-0.04,0.02-0.08,0.04-0.09c0.35-0.24,0.7-0.47,1.05-0.71c0.21-0.14,0.42-0.16,0.66-0.05c0.38,0.18,0.68,0.46,0.94,0.78
					c0.22,0.27,0.41,0.55,0.63,0.82c0.34,0.42,0.44,0.89,0.27,1.39c-0.09,0.28-0.01,0.46,0.16,0.66c0.46,0.56,0.91,1.14,1.36,1.71
					C185.86,215.22,185.94,215.33,186.04,215.48z M183.72,212.52c0.03-0.02,0.06-0.03,0.09-0.05c-0.01-0.32,0-0.64-0.22-0.91
					c-0.3-0.36-0.6-0.72-0.93-1.05c-0.4-0.4-0.49-0.4-0.94-0.05c-0.03,0.02-0.05,0.06-0.09,0.11c0.12,0.18,0.24,0.36,0.37,0.56
					c0.48-0.09,0.77,0.19,1.02,0.54c0.1,0.15,0.22,0.28,0.33,0.42C183.48,212.23,183.6,212.38,183.72,212.52z"/>
				<path class="st1" d="M180.75,212.02c0.23-0.05,0.33-0.09,0.44-0.09c0.41,0.01,0.82,0.03,1.23,0.05c0.17,0.01,0.3,0.08,0.31,0.26
					c0.01,0.18-0.15,0.23-0.28,0.24c-0.47,0.05-0.93,0.02-1.37-0.13C180.96,212.32,180.89,212.18,180.75,212.02z"/>
				<path class="st1" d="M183.57,214.54c-0.04-0.04-0.16-0.1-0.19-0.19c-0.05-0.13,0.01-0.25,0.17-0.28
					c0.17-0.03,0.35-0.07,0.53-0.07c0.17,0,0.3,0.14,0.28,0.29c-0.01,0.16-0.12,0.19-0.26,0.2c-0.14,0.01-0.27,0.03-0.41,0.04
					C183.67,214.52,183.66,214.52,183.57,214.54z"/>
				<path class="st1" d="M185.66,212.97c-0.16-0.68-0.29-1.37-0.43-2.06c-0.31-1.52-0.61-3.04-0.91-4.56
					c-0.06-0.31-0.11-0.63-0.15-0.95c-0.32,0.1-0.68,0.21-1.04,0.33c0.27,1.18,0.52,2.32,0.81,3.45c0.32,1.26,0.68,2.52,1.02,3.78
					c0.03,0.13,0.09,0.32,0.03,0.39c-0.25,0.28-0.18,0.66-0.32,0.97c-0.02,0.05,0.02,0.12,0.03,0.23c0.15-0.11,0.26-0.2,0.38-0.29
					c0.13,0.15,0.26,0.29,0.43,0.48C185.63,214.11,185.8,213.56,185.66,212.97z"/>
				<path class="st1" d="M186.42,231.98c0.03-0.12,0.05-0.2,0.07-0.27c0.04,0.01,0.07,0.01,0.09,0.03c0.27,0.27,0.54,0.55,0.8,0.83
					c0.17,0.18,0.12,0.39-0.11,0.5c-0.23,0.11-0.48,0.08-0.72,0c-0.61-0.2-0.99-0.67-1.33-1.17c-0.06-0.08-0.05-0.21-0.09-0.41
					C185.61,231.67,186,231.82,186.42,231.98z"/>
				<path class="st1" d="M178.94,231.96c0.68,0.22,0.68,0.22,1.22,0.06c0.07,0.14,0.14,0.28,0.2,0.43c0.09,0.23,0.03,0.4-0.18,0.52
					c-0.34,0.2-0.69,0.16-1.02-0.01c-0.16-0.08-0.27-0.24-0.27-0.44C178.9,232.34,178.93,232.17,178.94,231.96z"/>
				<path class="st1" d="M178.42,208.87c-0.08-0.07-0.18-0.13-0.28-0.17c-0.28-0.11-0.43-0.31-0.55-0.58
					c-0.31-0.67-0.63-1.34-0.99-1.99c-0.16-0.29-0.12-0.49,0.07-0.74c0.37-0.48,0.73-0.99,1.1-1.51c-0.28-0.26-0.55-0.51-0.83-0.78
					c-0.53,0.72-1.03,1.41-1.54,2.09c-0.21,0.27-0.21,0.5-0.03,0.79c0.51,0.8,1.01,1.6,1.5,2.41c0.11,0.18,0.18,0.4,0.29,0.59
					c0.06,0.1,0.14,0.21,0.23,0.27c0.22,0.15,0.46,0.28,0.72,0.44c0.07-0.04,0.3,0.14,0.41,0.1
					C179.24,209.51,178.7,209.1,178.42,208.87z"/>
			</g>
		</g>
		<g>
			<path class="st5" d="M241.08,97.53c-2.44-3.24-4.74-6.31-6.82-9.19c-16.92-23.49-23.57-46.06-23.63-46.27l-4.74-16.46
				l-4.77,16.45c-0.07,0.23-6.71,22.79-23.63,46.27c-2.09,2.89-4.38,5.95-6.82,9.19c-18.53,24.67-43.9,58.44-36.89,98.58
				c0.46,2.7,1.04,5.33,1.71,7.9l8.3-8.17c-0.1-0.47-0.19-0.95-0.27-1.42c-6.28-35.93,17.62-67.73,35.06-90.95
				c2.46-3.28,4.8-6.38,6.93-9.34c9.92-13.77,16.45-27.06,20.36-36.38c3.92,9.31,10.45,22.61,20.37,36.38
				c2.14,2.97,4.47,6.06,6.93,9.34c15.49,20.63,36.09,48.02,36.09,79.08c0,3.9-0.33,7.85-1.03,11.87c-0.08,0.47-0.17,0.95-0.27,1.42
				l8.29,8.17c0.68-2.57,1.25-5.2,1.72-7.9C284.98,155.96,259.6,122.19,241.08,97.53z M255.66,225.47
				c-4.39,6.15-9.76,11.35-15.93,15.43c-5.95,3.92-12.46,6.74-19.35,8.41c-4.88,1.19-9.77,1.81-14.47,1.84
				c-4.77-0.03-9.65-0.65-14.55-1.84c-6.88-1.67-13.39-4.5-19.32-8.4c-6.19-4.09-11.56-9.29-15.96-15.45
				c-4.8-6.66-8.39-14.33-10.74-22.88l-8.56,5.93c2.65,8.37,6.42,15.97,11.26,22.71c5.1,7.13,11.33,13.16,18.55,17.95
				c6.9,4.54,14.46,7.82,22.44,9.76c5.63,1.36,11.28,2.08,16.88,2.12c5.53-0.04,11.18-0.75,16.8-2.12c8-1.94,15.54-5.22,22.47-9.77
				c7.2-4.78,13.43-10.81,18.52-17.93c3.58-4.97,6.57-10.41,8.95-16.29c0.85-2.1,1.62-4.24,2.31-6.45l-8.55-5.92
				C264.06,211.13,260.46,218.8,255.66,225.47z"/>
		</g>
		<polygon class="st5" points="223.56,110.76 224.85,116.23 230.31,117.52 224.85,118.8 223.56,124.27 222.28,118.8 216.81,117.52 
			222.28,116.23 		"/>
		<polygon class="st5" points="234.93,124.27 236.21,129.74 241.68,131.02 236.21,132.3 234.93,137.77 233.65,132.3 228.18,131.02 
			233.65,129.74 		"/>
		<polygon class="st5" points="216.63,126.16 217.91,131.63 223.38,132.91 217.91,134.19 216.63,139.66 215.35,134.19 
			209.88,132.91 215.35,131.63 		"/>
		<path class="st6" d="M275.61,206.37l-26.58-26.18v-26.85l-12.8-12.8v27.04l-25.38-25l-4.98-4.9l-4.98,4.9l-64.76,63.79
			l69.73-48.32L275.61,206.37z M206,143.02v10.45l-43.93,31.86L206,143.02z"/>
	</g>
	<g>
		<path class="st6" d="M101.51,274.49h15.35l18.83,56.82l18.72-56.82h15.35l-26.67,79.46h-14.91L101.51,274.49z"/>
		<path class="st1" d="M215.66,347.86c-6.42,4.46-13.61,7.29-21.44,7.29c-22.97,0-31.35-13.72-31.35-25.91
			c0-10.01,5.77-17.63,13.72-22.31c-2.5-3.92-3.7-7.95-3.7-13.06c0-11.54,9.58-20.46,22.75-20.46s20.35,6.75,23.19,14.8l-14.37,5.12
			c-1.2-3.81-3.59-6.75-8.27-6.75c-4.46,0-7.73,3.05-7.73,7.29c0,6.1,2.72,8.93,13.17,19.38l15.13,15.24
			c3.16-4.46,5.22-9.47,6.42-14.59h-13.39v-14.04h28.08v6.86c0,10.01-4.46,21.44-11.86,31.02l16.11,16.22h-20.25L215.66,347.86z
			 M206.3,338.61l-16.87-16.98c-1.63-1.52-3.05-3.05-4.46-4.46c-4.79,2.94-7.4,6.42-7.4,11.97c0,6.86,5.77,13.06,16.54,13.06
			C198.35,342.2,202.38,341,206.3,338.61z"/>
		<path class="st5" d="M246.69,274.49h16.76l34.4,54.1v-54.1h14.8v79.46h-15.78l-35.38-55.84v55.84h-14.8V274.49z"/>
	</g>
	<g>
		<path class="st1" d="M24.84,377.02c0-6.55,5.13-11.52,11.52-11.52c4.18,0,7.96,2.27,9.93,5.65l-2.61,1.6
			c-1.44-2.67-4-4.39-7.31-4.39c-4.86,0-8.51,3.87-8.51,8.67c0,4.76,3.66,8.6,8.48,8.6c3.66,0,6.21-1.91,7.59-4.73l2.67,1.41
			c-1.97,3.72-5.62,6.24-10.23,6.24C29.82,388.55,24.84,383.38,24.84,377.02z"/>
		<path class="st1" d="M49.11,365.81h2.95v19.58h9.5v2.86H49.11V365.81z"/>
		<path class="st1" d="M64.84,365.81h13.52v2.83H67.79v6.94h10.57v2.83H67.79v6.98h10.57v2.86H64.84V365.81z"/>
		<path class="st1" d="M89.05,365.81h3.1l8.3,22.43h-3.1l-1.91-5.13h-9.71l-1.87,5.13h-3.13L89.05,365.81z M86.78,380.25h7.62
			l-3.81-10.36L86.78,380.25z"/>
		<path class="st1" d="M103.12,365.81h3.38l12.08,17.64v-17.64h2.95v22.43h-3.16l-12.29-17.89v17.89h-2.95V365.81z"/>
		<path class="st1" d="M125.48,365.81h2.98v22.43h-2.98V365.81z"/>
		<path class="st1" d="M132.4,365.81h3.38l12.08,17.64v-17.64h2.95v22.43h-3.16l-12.29-17.89v17.89h-2.95V365.81z"/>
		<path class="st1" d="M153.87,377.02c0-6.39,4.92-11.52,11.65-11.52c4.46,0,8.05,2.3,10.02,5.75l-2.58,1.57
			c-1.51-2.8-4.12-4.46-7.44-4.46c-5.07,0-8.64,3.93-8.64,8.67c0,4.76,3.6,8.63,8.64,8.63c4.58,0,7.41-2.83,8.05-6.76h-8.42v-2.83
			h11.52v1.04c0,6.15-4.15,11.43-11.16,11.43C158.79,388.55,153.87,383.29,153.87,377.02z"/>
		<path class="st1" d="M186.04,384.55l2.61-2.03c1.35,2.09,3.17,3.23,5.5,3.23c2.61,0,4.37-1.63,4.37-3.84
			c0-2.46-2.49-3.29-5.2-4.12c-3.04-0.98-6.3-2.21-6.3-6.27c0-3.38,3.01-6.02,7.07-6.02c3.32,0,5.41,1.29,7.1,3.26l-2.43,1.81
			c-1.08-1.63-2.61-2.43-4.67-2.43c-2.43,0-4.02,1.38-4.02,3.32c0,2.36,2.49,3.04,5.1,3.93c3.11,1.07,6.42,2.33,6.42,6.51
			c0,3.44-2.86,6.64-7.41,6.64C190.4,388.55,187.88,386.98,186.04,384.55z"/>
		<path class="st1" d="M204.62,365.81h13.52v2.83h-10.57v6.94h10.57v2.83h-10.57v6.98h10.57v2.86h-13.52V365.81z"/>
		<path class="st1" d="M221.52,365.81h7.19c4.64,0,7.81,3.17,7.81,7.25c0,2.98-1.87,5.56-4.58,6.7l4.92,8.48h-3.35l-4.42-7.81h-4.64
			v7.81h-2.92V365.81z M224.44,368.57v9.13h3.93c3.38,0,5.13-2.43,5.13-4.64c0-2.67-1.78-4.49-5.1-4.49H224.44z"/>
		<path class="st1" d="M238.26,365.81h3.1l6.39,18.1l6.36-18.1h3.1l-7.99,22.43h-3.01L238.26,365.81z"/>
		<path class="st1" d="M260.14,365.81h2.98v22.43h-2.98V365.81z"/>
		<path class="st1" d="M266.4,377.02c0-6.55,5.13-11.52,11.52-11.52c4.18,0,7.96,2.27,9.93,5.65l-2.61,1.6
			c-1.44-2.67-3.99-4.39-7.31-4.39c-4.86,0-8.51,3.87-8.51,8.67c0,4.76,3.66,8.6,8.48,8.6c3.66,0,6.21-1.91,7.59-4.73l2.67,1.41
			c-1.97,3.72-5.62,6.24-10.23,6.24C271.38,388.55,266.4,383.38,266.4,377.02z"/>
		<path class="st1" d="M290.67,365.81h13.52v2.83h-10.57v6.94h10.57v2.83h-10.57v6.98h10.57v2.86h-13.52V365.81z"/>
		<path class="st1" d="M306.25,384.55l2.61-2.03c1.35,2.09,3.17,3.23,5.5,3.23c2.61,0,4.36-1.63,4.36-3.84
			c0-2.46-2.49-3.29-5.19-4.12c-3.04-0.98-6.3-2.21-6.3-6.27c0-3.38,3.01-6.02,7.07-6.02c3.32,0,5.41,1.29,7.1,3.26l-2.43,1.81
			c-1.08-1.63-2.61-2.43-4.67-2.43c-2.43,0-4.02,1.38-4.02,3.32c0,2.36,2.49,3.04,5.1,3.93c3.1,1.07,6.42,2.33,6.42,6.51
			c0,3.44-2.86,6.64-7.41,6.64C310.61,388.55,308.09,386.98,306.25,384.55z"/>
		<path class="st1" d="M332.73,365.81h2.98v22.43h-2.98V365.81z"/>
		<path class="st1" d="M339.64,365.81h3.38l12.08,17.64v-17.64h2.95v22.43h-3.17l-12.29-17.89v17.89h-2.95V365.81z"/>
		<path class="st1" d="M361.12,377.02c0-6.55,5.13-11.52,11.52-11.52c4.18,0,7.96,2.27,9.93,5.65l-2.61,1.6
			c-1.44-2.67-3.99-4.39-7.31-4.39c-4.86,0-8.51,3.87-8.51,8.67c0,4.76,3.66,8.6,8.48,8.6c3.66,0,6.21-1.91,7.59-4.73l2.67,1.41
			c-1.97,3.72-5.62,6.24-10.23,6.24C366.09,388.55,361.12,383.38,361.12,377.02z"/>
		<path class="st1" d="M387.05,384.09c1.44,0,2.27,0.89,2.27,2.21c0,1.32-0.83,2.21-2.27,2.21c-1.38,0-2.21-0.89-2.21-2.21
			C384.83,384.98,385.72,384.09,387.05,384.09z"/>
	</g>
</g>
</svg>
